<?xml version="1.0" encoding="iso-8859-1"?>
<!-- Generator: Adobe Illustrator 19.0.0, SVG Export Plug-In . SVG Version: 6.00 Build 0)  -->
<svg version="1.1" id="Layer_1" xmlns="http://www.w3.org/2000/svg" xmlns:xlink="http://www.w3.org/1999/xlink" x="0px" y="0px"
	 viewBox="0 0 512 512" style="enable-background:new 0 0 512 512;" xml:space="preserve">
<g id="sport">
	<g id="boxing">
	</g>
	<g id="judo">
	</g>
	<g id="tennis">
	</g>
	<g id="cup">
	</g>
	<g id="medal">
	</g>
	<g id="skateboard">
	</g>
	<g id="target_with_arrow">
	</g>
	<g id="bing_bong">
	</g>
	<g id="bowling">
	</g>
	<g id="baseball">
	</g>
	<g id="swimming">
	</g>
	<g id="football">
	</g>
	<g id="basketball">
	</g>
	<g id="gym">
	</g>
	<g id="american_football">
	</g>
</g>
<g id="devices">
	<g id="camera">
	</g>
	<g id="apple">
	</g>
	<g id="classic_camera">
	</g>
	<g id="computer">
	</g>
	<g id="ipad">
	</g>
	<g id="iphone">
	</g>
	<g id="printer">
	</g>
	<g id="mp3_player">
	</g>
	<g id="LCD_tivi">
	</g>
	<g id="retro_tivi">
	</g>
	<g id="gamepad">
	</g>
	<g id="ps_vista">
	</g>
	<g id="gameboy">
	</g>
	<g id="bombox">
	</g>
	<g id="playstation">
	</g>
	<g id="laptop">
	</g>
	<g id="smartphone">
	</g>
	<g id="projector">
	</g>
	<g id="imac">
	</g>
	<g id="camera_for_film">
	</g>
</g>
<g id="chemistry_x2F__health">
	<g id="DNA">
	</g>
	<g id="different_kind_of_tubes">
	</g>
	<g id="radioactive">
	</g>
	<g id="monitor">
	</g>
	<g id="first_aid_kit">
	</g>
	<g id="needle">
	</g>
	<g id="microscope">
	</g>
	<g id="plaster">
	</g>
	<g id="experiment">
	</g>
	<g id="pill">
	</g>
	<g id="blood">
	</g>
	<g id="molecular">
	</g>
	<g id="gen">
	</g>
	<g id="t&#xE9;t_tube">
	</g>
	<g id="stethoscope">
	</g>
</g>
<g id="others">
	<g id="book">
	</g>
	<g id="key">
	</g>
	<g id="box">
	</g>
	<g id="bell">
	</g>
	<g id="suitcase">
	</g>
	<g id="chess_game">
	</g>
	<g id="website_with_cretificate">
	</g>
	<g id="spider_with_eye">
	</g>
	<g id="imac_with__x3C__x2F__x3E_">
	</g>
	<g id="macbook_with_graph">
	</g>
	<g id="envelope_with_letter">
	</g>
	<g id="smartphone_with_mail_icon">
	</g>
	<g id="smartphone_with_setting_icon">
	</g>
	<g id="_x2C_aptop_with_setting_icon">
	</g>
	<g id="plant">
	</g>
	<g id="toaster">
	</g>
	<g id="telescope">
	</g>
	<g id="rocket">
	</g>
	<g id="bomb">
	</g>
	<g id="mail_box">
	</g>
</g>
<g id="food">
	<g id="hamburger">
	</g>
	<g id="coffee_take_away">
	</g>
	<g id="cherry">
	</g>
	<g id="strawberry">
	</g>
	<g id="hotdog">
	</g>
	<g id="sushi">
	</g>
	<g id="tea">
	</g>
	<g id="water_with_ice">
	</g>
	<g id="wine">
	</g>
	<g id="coca">
	</g>
	<g id="ice_cream1">
	</g>
	<g id="knife_&#x1B0;ith_fork">
	</g>
	<g id="meat">
	</g>
	<g id="cheese">
	</g>
	<g id="fish">
	</g>
	<g id="carrot">
	</g>
	<g id="tomato">
	</g>
	<g id="beer">
	</g>
	<g id="egg">
	</g>
	<g id="ice_cream2">
	</g>
</g>
<g id="users">
	<g id="male">
	</g>
	<g id="female">
	</g>
	<g id="male_with_chat_box">
	</g>
	<g id="male_with_mail">
	</g>
	<g id="male_with_keyboard">
	</g>
	<g id="male_with_headphone">
	</g>
	<g id="male_with_tearm">
	</g>
	<g id="male_with_plus">
	</g>
	<g id="male_with_minus">
	</g>
	<g id="female_with_magnifier">
	</g>
</g>
<g id="money_x2F_shopping_x2F_b&#xFA;iness">
	<g id="wallet">
	</g>
	<g id="coins">
	</g>
	<g id="laptop_with__x24__x24__x24_">
	</g>
	<g id="smartphone_with__x24_">
	</g>
	<g id="coin_with_clock">
	</g>
	<g id="bag_empty">
	</g>
	<g id="bag_full">
	</g>
	<g id="gift">
	</g>
	<g id="gold_bar">
	</g>
	<g id="hand_with__x24_">
	</g>
	<g id="magnifier_with__x24_">
	</g>
	<g id="megaphone_with__x24_">
	</g>
	<g id="piggy_bank">
	</g>
	<g id="calculator">
	</g>
	<g id="bag_with__x24_">
	</g>
	<g id="safe">
	</g>
	<g id="man_with__x24_">
	</g>
	<g id="credit_card">
	</g>
	<g id="tree_with__x24_">
	</g>
	<g id="balance_with__x24_">
	</g>
</g>
<g id="season">
	<g id="spring">
	</g>
	<g id="summer">
	</g>
	<g id="autumn">
	</g>
	<g id="winter">
	</g>
	<g id="cloud_with_rain">
	</g>
	<g id="sun_with_cloud">
	</g>
	<g id="cloud_with_lightning">
	</g>
	<g id="cloud_with_snow">
	</g>
	<g id="snow">
	</g>
	<g id="moon">
	</g>
</g>
<g id="landscape">
	<g id="mountain">
	</g>
	<g id="desert">
	</g>
	<g id="island">
	</g>
	<g id="sea">
	</g>
	<g id="water_fall">
		<g>
			<circle style="fill:#4ec08d;" cx="256" cy="256" r="256"/>
			<circle style="fill:#438374;" cx="256" cy="256.001" r="203.503"/>
			<path style="fill:#4ec08d;" d="M64.497,256.001c0,37.916,11.022,73.257,30.032,102.998H417.47
				c19.011-29.741,30.032-65.082,30.032-102.998c0-8.059-0.504-15.999-1.471-23.796H65.968
				C65.001,240.002,64.497,247.942,64.497,256.001z"/>
			<path style="fill:#406284;" d="M76.363,322.494C103.391,395.479,173.617,447.503,256,447.503
				c82.384,0,152.61-52.023,179.636-125.009H76.363z"/>
			<path style="fill:#35495d;" d="M76.364,322.494c0.012,0.016,0.022,0.03,0.033,0.045c2.514,3.404,5.4,6.716,8.634,9.927
				c0.06,0.058,0.119,0.115,0.179,0.174c0.472,0.467,0.951,0.931,1.438,1.393c0.091,0.086,0.184,0.172,0.275,0.258
				c0.461,0.435,0.928,0.867,1.401,1.297c0.109,0.1,0.22,0.199,0.33,0.298c0.464,0.417,0.933,0.833,1.407,1.245
				c0.12,0.104,0.24,0.209,0.361,0.313c0.477,0.411,0.96,0.819,1.449,1.228c0.118,0.098,0.235,0.196,0.354,0.294
				c0.507,0.419,1.02,0.836,1.538,1.25c0.104,0.083,0.206,0.166,0.311,0.249c0.153,0.121,0.313,0.241,0.467,0.363h32.727v18.667
				c0,2.762,2.238,5,5,5h51c2.762,0,5-2.238,5-5v-9.333h11.686c2.762,0,5-2.238,5-5v-4.334h29.138v4.482c0,2.762,2.238,5,5,5h70.673
				c2.762,0,5-2.238,5-5v-4.482h102.693c0.15-0.117,0.304-0.234,0.453-0.353c0.117-0.094,0.234-0.188,0.352-0.281
				c0.506-0.405,1.006-0.811,1.5-1.219c0.127-0.104,0.253-0.21,0.379-0.315c0.481-0.401,0.958-0.805,1.428-1.209
				c0.127-0.11,0.252-0.219,0.378-0.328c0.47-0.408,0.933-0.817,1.391-1.229c0.114-0.104,0.229-0.207,0.344-0.311
				c0.472-0.428,0.935-0.858,1.394-1.289c0.093-0.088,0.186-0.175,0.277-0.261c0.49-0.464,0.971-0.932,1.445-1.399
				c0.057-0.056,0.113-0.11,0.168-0.164c3.239-3.215,6.13-6.533,8.646-9.941c0.008-0.013,0.016-0.023,0.023-0.033H76.364V322.494z"
				/>
			<path style="fill:#35495d;" d="M176.38,367.179h-76.314c16.393,22.951,37.728,42.127,62.448,55.982h4.354
				c1.75,0,3.167-1.418,3.167-3.166c0-1.677-1.308-3.036-2.958-3.146v-0.021h-0.209H153.66c-0.921,0-1.667-0.746-1.667-1.667
				s0.746-1.667,1.667-1.667h13.416h4.957c2.025,0,3.667-1.642,3.667-3.667c0-2.024-1.642-3.666-3.667-3.666h-13.435v-0.008h-1.635
				c-1.378,0-2.496-1.117-2.496-2.496s1.118-2.496,2.496-2.496h1.635h2.603c2.301,0,4.166-1.865,4.166-4.166
				c0-2.302-1.865-4.167-4.166-4.167H150.23c-1.432-0.156-2.549-1.354-2.549-2.827c0-1.579,1.279-2.859,2.859-2.859h8.058h17.781
				c5.513,0,9.981-4.469,9.981-9.981S181.893,367.179,176.38,367.179z"/>
			<path style="fill:#E8E9EC;" d="M249.295,333.602c0,0.652-0.529,1.182-1.182,1.182h-28.042c-0.652,0-1.182-0.529-1.182-1.182l0,0
				c0-0.653,0.529-1.183,1.182-1.183h28.042C248.766,332.42,249.295,332.949,249.295,333.602L249.295,333.602z"/>
			<path style="fill:#E8E9EC;" d="M207.219,333.602c0,0.652,0.529,1.182,1.183,1.182h5.787c0.653,0,1.182-0.529,1.182-1.182l0,0
				c0-0.653-0.528-1.183-1.182-1.183h-5.787C207.748,332.42,207.219,332.949,207.219,333.602L207.219,333.602z"/>
			<path style="fill:#E8E9EC;" d="M191.649,333.632c0,0.637,0.516,1.152,1.152,1.152h8.699c0.637,0,1.153-0.516,1.153-1.152l0,0
				c0-0.637-0.517-1.152-1.153-1.152h-8.699C192.165,332.479,191.649,332.995,191.649,333.632L191.649,333.632z"/>
			<path style="fill:#E8E9EC;" d="M245.165,329.77c0,0.698-0.565,1.264-1.264,1.264h-0.815c-0.698,0-1.263-0.565-1.263-1.264l0,0
				c0-0.697,0.564-1.264,1.263-1.264h0.815C244.6,328.507,245.165,329.073,245.165,329.77L245.165,329.77z"/>
			<path style="fill:#c4e2fe;" d="M239.703,328.507h-2.677h-2.632c-0.315,0-0.57-0.255-0.57-0.57s0.255-0.57,0.57-0.57h2.632v-0.004
				h0.315c1.342,0,2.43-1.088,2.43-2.43s-1.088-2.43-2.43-2.43h-3.25v-90.756c0-1.801-1.46-3.261-3.261-3.261h-22.606
				c-1.8,0-3.261,1.46-3.261,3.261v90.756h-4.118c-1.341,0-2.43,1.088-2.43,2.43s1.089,2.43,2.43,2.43h0.198v0.004h1.528
				c0.315,0,0.571,0.255,0.571,0.57s-0.256,0.57-0.571,0.57h-1.528h-3.566c-0.697,0-1.264,0.566-1.264,1.264
				s0.566,1.264,1.264,1.264h21.521c0.698,0,1.264-0.565,1.264-1.264c0-0.697-0.565-1.264-1.264-1.264h-0.611h-2.608
				c-0.315,0-0.57-0.255-0.57-0.57s0.255-0.57,0.57-0.57h2.608v-0.004h7.499v0.011h0.614c0.313,0,0.567,0.254,0.567,0.567
				s-0.254,0.566-0.567,0.566h-0.614h-0.529c-0.698,0-1.264,0.566-1.264,1.264s0.565,1.264,1.264,1.264h14.347
				c0.698,0,1.264-0.565,1.264-1.264C240.967,329.073,240.401,328.507,239.703,328.507z"/>
			<path style="fill:#4ec08d;" d="M234.092,199.828v69.933c0,5.522,4.477,10,10,10h201.945c0.963-7.785,1.466-15.714,1.466-23.76
				c0-23.26-4.15-45.549-11.745-66.173H244.092C238.568,189.828,234.092,194.306,234.092,199.828z"/>
			<path style="fill:#4ec08d;" d="M194.954,211.033H69.82c-3.472,14.424-5.323,29.479-5.323,44.968
				c0,15.488,1.852,30.542,5.322,44.965h125.135c5.523,0,10-4.478,10-10v-69.933C204.954,215.511,200.478,211.033,194.954,211.033z"
				/>
			<circle style="fill:#EDC849;" cx="215.37" cy="117.828" r="22.333"/>
			<path style="fill:#4ec08d;" d="M447.331,248.175c-1.869-46.465-20.277-88.67-49.519-120.872h-90.478c-22.091,0-40,17.909-40,40
				v52.153c0,22.092,17.909,40,40,40h112.168C430.321,259.456,440.13,255.153,447.331,248.175z"/>
			<path style="fill:#4ec08d;" d="M106.21,197.298c0-21.879,17.736-39.615,39.615-39.615l0,0c21.879,0,39.615,17.736,39.615,39.615
				v10.655c0,21.879-17.736,39.615-39.615,39.615l0,0c-21.879,0-39.615-17.736-39.615-39.615
				C106.21,207.953,106.21,197.298,106.21,197.298z"/>
			<path style="fill:#35495d;" d="M378.988,393.253h-2.774c-1.648,0-2.984,1.336-2.984,2.986c0,1.649,1.336,2.986,2.984,2.986h6.891
				c2.187-1.942,4.329-3.934,6.425-5.973h-10.542V393.253z"/>
			<path style="fill:#35495d;" d="M295.231,337.793c-4.44,0-8.038,3.599-8.038,8.037s3.598,8.037,8.038,8.037h23.058h1.866
				c1.916,0,3.469,1.553,3.469,3.468c0,1.917-1.553,3.47-3.469,3.47h-1.866v0.025h-3.079c-2.042,0-3.697,1.656-3.697,3.698
				c0,2.041,1.655,3.697,3.697,3.697h57.011v0.006h1.296c0.941,0,1.705,0.763,1.705,1.703c0,0.941-0.764,1.704-1.705,1.704h-1.296
				h-2.264c-1.491,0-2.701,1.209-2.701,2.701s1.21,2.701,2.701,2.701h11.819c0.979,0.17,1.728,1.019,1.728,2.047
				c0,1.149-0.934,2.081-2.083,2.081h-10.325h-16.995c-2.003,0-3.625,1.623-3.625,3.624c0,2.003,1.622,3.624,3.625,3.624h40.238
				c14.173-14.803,25.987-31.88,34.854-50.624H295.231V337.793z"/>
			<path style="fill:#DDAE2A;" d="M244.647,407.67c0,0.932-0.756,1.688-1.688,1.688h-6.579c-0.934,0-1.689-0.756-1.689-1.688l0,0
				c0-0.933,0.756-1.688,1.689-1.688h6.579C243.892,405.981,244.647,406.737,244.647,407.67L244.647,407.67z"/>
			<path style="fill:#DDAE2A;" d="M190.003,413.326c0,0.958,0.777,1.735,1.735,1.735h4.747c0.959,0,1.736-0.777,1.736-1.735l0,0
				c0-0.958-0.777-1.735-1.736-1.735h-4.747C190.78,411.591,190.003,412.368,190.003,413.326L190.003,413.326z"/>
			<path style="fill:#DDAE2A;" d="M199.094,395.73c0,0.843,0.683,1.524,1.524,1.524h2.09c0.842,0,1.525-0.682,1.525-1.524l0,0
				c0-0.842-0.684-1.524-1.525-1.524h-2.09C199.776,394.206,199.094,394.889,199.094,395.73L199.094,395.73z"/>
			<path style="fill:#DDAE2A;" d="M231.165,391.288c0,0.879-0.713,1.592-1.592,1.592h-0.743c-0.88,0-1.593-0.713-1.593-1.592l0,0
				c0-0.88,0.713-1.593,1.593-1.593h0.743C230.452,389.695,231.165,390.408,231.165,391.288L231.165,391.288z"/>
			<path style="fill:#DDAE2A;" d="M197.275,423.554c0,1.156,0.938,2.094,2.095,2.094h1.557c1.156,0,2.094-0.938,2.094-2.094l0,0
				c0-1.157-0.938-2.095-2.094-2.095h-1.557C198.213,421.459,197.275,422.396,197.275,423.554L197.275,423.554z"/>
			<path style="fill:#DDAE2A;" d="M237.181,418.201c0,1.028-0.834,1.862-1.862,1.862h-0.784c-1.028,0-1.862-0.834-1.862-1.862l0,0
				c0-1.028,0.834-1.862,1.862-1.862h0.784C236.347,416.339,237.181,417.173,237.181,418.201L237.181,418.201z"/>
			<path style="fill:#DDAE2A;" d="M232.256,428.861c0,0.948-0.771,1.72-1.722,1.72h-1.959c-0.951,0-1.721-0.771-1.721-1.72l0,0
				c0-0.952,0.77-1.724,1.721-1.724h1.959C231.485,427.138,232.256,427.909,232.256,428.861L232.256,428.861z"/>
			<path style="fill:#DDAE2A;" d="M239.489,411.591h-7.795h-2.498c-0.617,0-1.117-0.5-1.117-1.117c0-0.616,0.5-1.116,1.117-1.116
				h2.498h0.545c0.934,0,1.689-0.756,1.689-1.688c0-0.932-0.756-1.688-1.689-1.688h-0.396h-0.768c-0.764,0-1.383-0.619-1.383-1.383
				s0.619-1.383,1.383-1.383h0.768v-0.002h5.449c1.229,0,2.223-0.995,2.223-2.223c0-1.226-0.994-2.22-2.223-2.22h-6.626h-3.411
				c-0.418,0-0.758-0.34-0.758-0.759c0-0.418,0.34-0.758,0.758-0.758h3.411h0.715c0.841,0,1.524-0.682,1.524-1.524
				c0-0.842-0.684-1.524-1.524-1.524h-6.909v-0.008h-2.447c-0.363,0-0.659-0.296-0.659-0.66c0-0.363,0.296-0.658,0.659-0.658h2.447
				h0.435c0.88,0,1.591-0.713,1.591-1.592c0-0.88-0.711-1.593-1.591-1.593h-17.865c-0.88,0-1.593,0.713-1.593,1.593
				c0,0.879,0.713,1.592,1.593,1.592h1.085h1.771c0.359,0,0.65,0.291,0.65,0.649c0,0.359-0.291,0.65-0.65,0.65h-1.771v0.026h-0.419
				c-0.841,0-1.524,0.683-1.524,1.524c0,0.843,0.684,1.524,1.524,1.524h0.812h1.004c0.416,0,0.752,0.338,0.752,0.754
				s-0.336,0.752-0.752,0.752h-1.004v0.011h-9.539c-1.227,0-2.223,0.994-2.223,2.22c0,1.228,0.996,2.223,2.223,2.223h0.625v0.002
				h1.979c0.764,0,1.383,0.619,1.383,1.383s-0.619,1.383-1.383,1.383h-1.979h-3.688c-0.932,0-1.687,0.756-1.687,1.688
				c0,0.933,0.755,1.688,1.687,1.688h6.959v0.004h1.119c0.617,0,1.117,0.5,1.117,1.115c0,0.616-0.5,1.114-1.117,1.114h-1.119h-1.004
				c-0.958,0-1.735,0.777-1.735,1.736c0,0.957,0.777,1.734,1.735,1.734h1.004h0.304c0.354,0,0.642,0.286,0.642,0.64
				c0,0.349-0.277,0.628-0.625,0.638h-5.945c-1.027,0-1.861,0.834-1.861,1.861c0,1.029,0.834,1.863,1.861,1.863h9.842v0.006h0.633
				c0.384,0,0.695,0.311,0.695,0.695c0,0.383-0.312,0.694-0.695,0.694h-0.633h-0.579c-1.157,0-2.095,0.937-2.095,2.093
				c0,1.157,0.938,2.096,2.095,2.096h4.641h0.927c0.408,0,0.739,0.33,0.739,0.737c0,0.408-0.331,0.739-0.739,0.739h-0.927v0.014
				h-1.103c-0.951,0-1.723,0.771-1.723,1.721c0,0.953,0.771,1.723,1.723,1.723h13.684c0.95,0,1.723-0.77,1.723-1.723
				c0-0.949-0.772-1.721-1.723-1.721h-0.57h-1.666c-0.416,0-0.752-0.337-0.752-0.753c0-0.39,0.301-0.698,0.68-0.737h13.852
				c1.156,0,2.094-0.938,2.094-2.096c0-1.156-0.938-2.093-2.094-2.093h-6.004v-0.008h-1.471c-0.383,0-0.693-0.311-0.693-0.693
				c0-0.384,0.311-0.694,0.693-0.694h1.471h0.559c1.027,0,1.861-0.834,1.861-1.863c0-1.027-0.834-1.861-1.861-1.861h-0.74h-1.611
				c-0.355,0-0.644-0.289-0.644-0.645c0-0.336,0.264-0.605,0.593-0.633h12.059c0.957,0,1.734-0.777,1.734-1.734
				C241.224,412.368,240.446,411.591,239.489,411.591z"/>
			<path style="fill:#323232;" d="M64.497,256.001c0,17.961,2.479,35.342,7.103,51.826h33.126c16.568,0,30-13.432,30-30V107.792
				C91.857,142.912,64.497,196.259,64.497,256.001z"/>
			<path style="fill:#323232;" d="M135.367,206.827H70.881c-0.063,0.236-0.13,0.471-0.191,0.707c-0.104,0.4-0.207,0.8-0.309,1.2
				c-0.307,1.212-0.605,2.428-0.891,3.649c-0.035,0.15-0.072,0.301-0.107,0.451c-0.311,1.35-0.604,2.706-0.885,4.067
				c-0.08,0.386-0.158,0.772-0.236,1.159c-0.229,1.144-0.449,2.291-0.659,3.442c-0.049,0.268-0.101,0.534-0.148,0.802
				c-0.243,1.375-0.472,2.755-0.686,4.139c-0.056,0.358-0.106,0.717-0.161,1.075c-0.168,1.136-0.328,2.273-0.477,3.415
				c-0.045,0.334-0.09,0.666-0.133,1c-0.176,1.401-0.336,2.807-0.481,4.218c-0.031,0.303-0.058,0.607-0.088,0.911
				c-0.115,1.174-0.22,2.352-0.313,3.532c-0.029,0.369-0.061,0.737-0.088,1.107c-0.105,1.432-0.198,2.866-0.272,4.307
				c-0.011,0.202-0.017,0.405-0.026,0.607c-0.062,1.269-0.108,2.54-0.145,3.815c-0.012,0.389-0.022,0.779-0.031,1.17
				c-0.033,1.463-0.056,2.928-0.056,4.398c0,1.544,0.022,3.083,0.059,4.618c0.005,0.213,0.011,0.428,0.017,0.642
				c1.184,43.917,17.156,84.142,43.115,115.883h57.68V236.827C165.367,220.259,151.936,206.827,135.367,206.827z"/>
			<path style="fill:#494A4A;" d="M135.367,206.827h-0.642v-99.035c-4.15,3.4-8.151,6.976-12,10.707v88.328v8.98h3.919
				c2.801,0,5.509,0.393,8.081,1.11c12.642,3.529,21.919,15.122,21.919,28.89v131.336h8.723V236.827
				C165.367,220.259,151.936,206.827,135.367,206.827z"/>
			<path style="fill:#323232;" d="M447.503,256.001c0-7.509-0.446-14.912-1.288-22.195
				c-86.846,20.734-146.364,63.107-146.364,112.024h125.306C439.413,319.039,447.503,288.467,447.503,256.001z"/>
			<path style="fill:#494A4A;" d="M446.215,233.806c-86.846,20.734-146.364,63.107-146.364,112.024h9.277
				c6.86-43.493,60.859-80.808,138.06-100.728C446.975,241.306,446.646,237.54,446.215,233.806z"/>
			<path style="fill:#b2cce4;" d="M227.425,245.198c-0.892,0-1.614,0.723-1.614,1.615v17.178v1.969c0,0.597-0.483,1.081-1.081,1.081
				c-0.597,0-1.08-0.484-1.08-1.081v-1.969v-0.564c0-0.791-0.643-1.434-1.434-1.434c-0.792,0-1.434,0.643-1.434,1.434v0.564v1.404
				c0,0.77-0.624,1.395-1.395,1.395c-0.77,0-1.394-0.625-1.394-1.395v-1.404h-0.002v-19.608c0-0.901-0.73-1.631-1.632-1.631
				c-0.9,0-1.63,0.729-1.63,1.631v0.815v1.594c0,0.559-0.453,1.012-1.013,1.012c-0.559,0-1.012-0.453-1.012-1.012v-1.594h-0.003
				v-5.467c0-0.913-0.74-1.654-1.655-1.654c-0.913,0-1.654,0.741-1.654,1.654v44.523c0,0.914,0.741,1.654,1.654,1.654
				c0.915,0,1.655-0.74,1.655-1.654v-7.725h0.003v-2.611c0-0.56,0.453-1.012,1.012-1.012c0.56,0,1.013,0.452,1.013,1.012v2.611
				v0.586c0,0.9,0.729,1.631,1.63,1.631s1.632-0.73,1.632-1.631v-0.586h0.002v-0.887c0-0.77,0.624-1.395,1.394-1.395
				c0.771,0,1.395,0.625,1.395,1.395v0.887v28.497c0,0.79,0.642,1.433,1.434,1.433c0.791,0,1.434-0.643,1.434-1.433v-18.288v-1.432
				c0-0.598,0.483-1.081,1.08-1.081c0.598,0,1.081,0.483,1.081,1.081v1.432v0.528c0,0.893,0.723,1.616,1.614,1.616
				c0.893,0,1.615-0.724,1.615-1.616v-40.454C229.04,245.921,228.317,245.198,227.425,245.198z"/>
		</g>
	</g>
	<g id="lighthouse">
	</g>
	<g id="forest">
	</g>
	<g id="city">
	</g>
	<g id="arctic">
	</g>
	<g id="road">
	</g>
</g>
<g id="creative_x2F_design">
	<g id="pallete">
	</g>
	<g id="bucket">
	</g>
	<g id="cup_with_pen">
	</g>
	<g id="pencil">
	</g>
	<g id="wacom">
	</g>
	<g id="ruler">
	</g>
	<g id="pen">
	</g>
	<g id="rollet_paper">
	</g>
	<g id="colors">
	</g>
	<g id="light_bulb">
	</g>
	<g id="standee_for_painter">
	</g>
	<g id="vector_with_arrow">
	</g>
	<g id="spray_paint">
	</g>
	<g id="adobe_illustrator">
	</g>
	<g id="adobe_ph&#x1ED1;thop">
	</g>
	<g id="&#x1EBB;aser">
	</g>
	<g id="paint_brush">
	</g>
	<g id="sketbook_with_pencil">
	</g>
	<g id="picture_frame">
	</g>
	<g id="compa">
	</g>
</g>
<g>
</g>
<g>
</g>
<g>
</g>
<g>
</g>
<g>
</g>
<g>
</g>
<g>
</g>
<g>
</g>
<g>
</g>
<g>
</g>
<g>
</g>
<g>
</g>
<g>
</g>
<g>
</g>
<g>
</g>
</svg>
